<svg width="24" height="24" viewBox="0 0 24 24" fill="none" xmlns="http://www.w3.org/2000/svg">
<g clip-path="url(#clip0_103_53)">
<path d="M12 24C18.6274 24 24 18.6274 24 12C24 5.37258 18.6274 0 12 0C5.37258 0 0 5.37258 0 12C0 18.6274 5.37258 24 12 24Z" fill="#0E0E9E"/>
<path d="M24 12C24 18.63 18.63 24 12 24C5.37 24 0 18.63 0 12C0 5.37 5.37 0 12 0C18.63 0 24 5.37 24 12ZM12 1.14C6 1.14 1.14 6 1.14 12C1.14 18 6 22.86 12 22.86C18 22.86 22.86 18 22.86 12C22.86 6 18 1.14 12 1.14Z" fill="#040435"/>
<path d="M12.0003 22.47C17.7827 22.47 22.4703 17.7825 22.4703 12C22.4703 6.21761 17.7827 1.53003 12.0003 1.53003C6.21785 1.53003 1.53027 6.21761 1.53027 12C1.53027 17.7825 6.21785 22.47 12.0003 22.47Z" fill="#040435"/>
<path d="M6.12012 9.25509C6.52512 8.95509 6.93012 8.64009 7.35012 8.34009C7.50012 8.67009 7.66512 9.01509 7.83012 9.36009C7.44012 9.67509 7.05012 9.97509 6.64512 10.2751C6.46512 9.93009 6.30012 9.58509 6.12012 9.25509Z" fill="#1515D7"/>
<path d="M7.48504 11.955C7.89004 11.655 8.29504 11.34 8.71504 11.04C8.50504 10.65 8.31004 10.26 8.10004 9.85498C7.71004 10.155 7.30504 10.47 6.91504 10.77C7.11004 11.175 7.30504 11.565 7.48504 11.955Z" fill="#1515D7"/>
<path d="M6.3902 6.84008C6.5702 6.93008 6.6752 7.08008 6.7052 7.15508C6.8252 7.35008 6.9452 7.56008 7.0652 7.75508C6.6452 8.05508 6.2252 8.37008 5.8052 8.67008C5.6702 8.41508 5.5352 8.14508 5.3852 7.87508C5.3702 7.83008 5.2052 7.48508 5.3852 7.15508C5.5652 6.81008 6.0452 6.67508 6.3902 6.84008Z" fill="#0E0E9E"/>
<path d="M9.52526 4.60498C9.58526 4.85998 9.64526 5.12998 9.70526 5.38498C9.16526 5.56498 8.64026 5.74498 8.10026 5.92498C8.02526 5.60998 7.95026 5.29498 7.87526 4.97998C7.77026 4.52998 8.05526 4.06498 8.52026 3.95998C8.97026 3.85498 9.43526 4.13998 9.52526 4.60498Z" fill="#0E0E9E"/>
<path d="M8.25 6.49508C8.775 6.31508 9.3 6.13508 9.81 5.95508C9.9 6.45008 9.99 6.94508 10.08 7.44008C9.585 7.63508 9.09 7.81508 8.595 7.98008C8.49 7.48508 8.37 6.99008 8.25 6.49508Z" fill="#1515D7"/>
<path d="M8.71484 8.59493C9.22484 8.41493 9.73484 8.23493 10.2448 8.05493C10.3498 8.62493 10.4398 9.17993 10.5448 9.74993C10.0648 9.91493 9.58484 10.0799 9.08984 10.2449C8.96984 9.68993 8.83484 9.14993 8.71484 8.59493Z" fill="#1515D7"/>
<path d="M12.8665 7.07217V5.24707H11.2695V7.07217H12.8665Z" fill="#1515D7"/>
<path d="M12.8665 9.53622V7.61987H11.2695V9.53622H12.8665Z" fill="#1515D7"/>
<path d="M12.8854 3.81011C12.8854 4.12511 12.8854 4.44011 12.8854 4.74011C12.3304 4.74011 11.7904 4.74011 11.2354 4.74011C11.2354 4.42511 11.2354 4.11011 11.2354 3.81011C11.2354 3.36011 11.6104 2.98511 12.0604 2.98511C12.5104 2.98511 12.8854 3.34511 12.8854 3.81011Z" fill="#0E0E9E"/>
<path d="M14.2505 6C14.8055 6.165 15.3455 6.33 15.9005 6.495C15.7955 6.99 15.6905 7.485 15.6005 7.98C15.0605 7.815 14.5205 7.65 13.9805 7.485C14.0705 6.99 14.1605 6.495 14.2505 6Z" fill="#1515D7"/>
<path d="M13.9055 8.1001C14.4155 8.2651 14.9255 8.4301 15.4355 8.5951C15.3155 9.1501 15.2105 9.6901 15.0905 10.2451C14.5955 10.0951 14.1005 9.9451 13.6055 9.7801C13.7105 9.2251 13.8155 8.6551 13.9055 8.1001Z" fill="#1515D7"/>
<path d="M16.2155 4.96495C16.1405 5.27995 16.0805 5.60995 16.0055 5.92495C15.4505 5.75995 14.9105 5.59495 14.3555 5.42995C14.4155 5.15995 14.4605 4.90495 14.4905 4.64995C14.5805 4.18495 15.0455 3.86995 15.5105 3.95995C15.9905 4.03495 16.3055 4.49995 16.2155 4.96495Z" fill="#0E0E9E"/>
<path d="M19.6504 11.235C19.3804 11.595 19.1104 11.955 18.8404 12.3C18.4354 11.895 18.0304 11.49 17.6104 11.07C17.8504 10.755 18.0904 10.44 18.3304 10.125C18.6304 9.76497 19.1704 9.71997 19.5304 10.02C19.8904 10.335 19.9504 10.875 19.6504 11.235Z" fill="#0E0E9E"/>
<path d="M17.2345 11.5801C17.6395 11.9851 18.0445 12.3901 18.4645 12.8101C18.0895 13.2751 17.7295 13.7551 17.3545 14.2201C17.0395 13.6801 16.7245 13.1551 16.3945 12.6151C16.6795 12.2701 16.9495 11.9251 17.2345 11.5801Z" fill="#1515D7"/>
<path d="M11.7717 19.1635V17.749H9.1709V19.1635H11.7717Z" fill="#1515D7"/>
<path d="M12.4111 19.0722V17.7034H14.875V19.0722H12.4111Z" fill="#1515D7"/>
<path d="M9.1709 19.1635H9.94656V18.7073H9.1709V19.1635Z" fill="#0E0E9E"/>
<path d="M14.875 19.0722H14.145V18.616H14.875V19.0722Z" fill="#0E0E9E"/>
<path d="M9.16539 19.4551C10.0354 19.4551 10.8904 19.4551 11.7604 19.4551C11.7604 19.7701 11.7604 20.0851 11.7604 20.4151C11.5804 20.4151 11.4004 20.4151 11.2204 20.4151C11.1754 20.4151 11.1154 20.4151 11.0704 20.4151C11.0554 20.4151 10.9504 20.4151 10.8754 20.4901C10.7854 20.5801 10.8004 20.7001 10.8004 20.7151C10.8004 20.7601 10.8004 20.8201 10.8004 20.8651C10.4854 20.8651 10.1704 20.8651 9.84039 20.8651C9.76539 20.8651 9.63039 20.8351 9.49539 20.7451C9.21039 20.5651 9.16539 20.2201 9.15039 20.1751C9.16539 19.9351 9.16539 19.6951 9.16539 19.4551Z" fill="#1515D7"/>
<path d="M14.865 19.4551C14.04 19.4551 13.215 19.4551 12.375 19.4551C12.375 19.7701 12.375 20.0851 12.375 20.4151C12.54 20.4151 12.72 20.4151 12.885 20.4151C12.93 20.4151 12.975 20.4151 13.035 20.4151C13.05 20.4151 13.14 20.4151 13.215 20.4901C13.305 20.5801 13.29 20.7001 13.29 20.7151C13.29 20.7601 13.29 20.8201 13.29 20.8651C13.59 20.8651 13.905 20.8651 14.205 20.8651C14.28 20.8651 14.4 20.8351 14.535 20.7451C14.805 20.5651 14.85 20.2201 14.865 20.1751C14.865 19.9351 14.865 19.6951 14.865 19.4551Z" fill="#1515D7"/>
<path d="M10.7401 10.2749C10.7851 10.3949 10.8151 10.5299 10.8601 10.6499C10.3651 10.9799 9.88508 11.2949 9.40508 11.6249C9.36008 11.7299 9.30008 11.8349 9.25508 11.9249C9.25508 12.2099 9.25508 12.4799 9.25508 12.7649C8.98508 12.9749 8.82008 13.1849 8.71508 13.3349C8.53508 13.5899 8.43008 13.7399 8.44508 13.9499C8.46008 14.1749 8.59508 14.3249 8.79008 14.5649C8.95508 14.7599 9.13508 14.8949 9.25508 14.9849C9.25508 15.2849 9.25508 15.5699 9.25508 15.8699C9.30008 15.9899 9.36008 16.0949 9.40508 16.2149C9.88508 16.5449 10.3801 16.8749 10.8601 17.2049C10.5001 17.2049 10.1401 17.2049 9.79508 17.2049C9.57008 17.1899 9.30008 17.1299 9.03008 16.9799C8.02508 16.4249 7.93508 15.1349 7.92008 14.9999C7.89008 14.1449 7.86008 13.3049 7.83008 12.4649C8.32508 12.0749 8.82008 11.6699 9.31508 11.2799C9.28508 11.1149 9.25508 10.9499 9.21008 10.7699C9.72008 10.6049 10.2301 10.4399 10.7401 10.2749Z" fill="#1515D7"/>
<path d="M13.3346 10.2451C13.3046 10.3801 13.2896 10.5151 13.2596 10.6651C13.7396 10.9801 14.2346 11.2951 14.7146 11.6251C14.7596 11.7301 14.7896 11.8351 14.8346 11.9251C14.8346 12.2101 14.8346 12.4801 14.8346 12.7651C14.9246 12.8401 15.0746 12.9751 15.2096 13.1401C15.4646 13.4401 15.6446 13.6651 15.6296 13.9501C15.6146 14.1601 15.4796 14.3251 15.2846 14.5651C15.1196 14.7601 14.9396 14.8951 14.8196 14.9851C14.8196 15.2851 14.8196 15.5701 14.8196 15.8701C14.7746 15.9901 14.7446 16.0951 14.6996 16.2151C14.1746 16.5451 13.6496 16.8751 13.1396 17.2051C13.5896 17.2051 14.0246 17.2051 14.4746 17.2051C14.5946 17.1901 14.7746 17.1601 14.9696 17.0551C15.2696 16.9051 15.4346 16.6801 15.5096 16.5601C15.9896 15.9451 16.4846 15.3301 16.9646 14.7301C16.2596 13.5601 15.5696 12.3901 14.8646 11.2201C14.9096 11.0701 14.9396 10.9501 14.9846 10.8151C14.4896 10.6651 13.9946 10.5151 13.4996 10.3501C13.4396 10.3201 13.3946 10.2751 13.3346 10.2451Z" fill="#1515D7"/>
<path d="M11.3555 9.9751C11.4455 10.4401 11.5355 10.9201 11.6255 11.3851C11.9105 11.3851 12.1805 11.3851 12.4655 11.3851C12.5705 10.9201 12.6755 10.4401 12.7655 9.9751C12.3005 9.9751 11.8205 9.9751 11.3555 9.9751Z" fill="#1515D7"/>
<path d="M9.93027 12.915C9.96027 12.795 10.0353 12.615 10.1553 12.42C10.3053 12.21 10.4703 12.075 10.5903 12C10.7553 11.88 10.9203 11.745 11.0853 11.625C11.0403 11.505 11.0103 11.385 10.9653 11.28C10.7853 11.415 10.5753 11.55 10.3503 11.7C10.1703 11.805 9.99027 11.91 9.82527 12C9.82527 12.12 9.82527 12.24 9.82527 12.375C9.82527 12.525 9.81027 12.66 9.78027 12.795C9.79527 12.795 9.82527 12.81 9.85527 12.84C9.90027 12.87 9.91527 12.9 9.93027 12.915Z" fill="#0E0E9E"/>
<path d="M9.93027 14.865C9.97527 15 10.0353 15.21 10.2003 15.435C10.3653 15.66 10.5453 15.78 10.6653 15.855C10.8003 15.96 10.9503 16.065 11.0853 16.155C11.0553 16.2 11.0253 16.245 11.0103 16.305C10.9803 16.395 10.9653 16.485 10.9653 16.53C10.7553 16.365 10.5153 16.2 10.2453 16.035C10.0953 15.945 9.96027 15.87 9.82527 15.81C9.82527 15.675 9.82527 15.54 9.82527 15.39C9.82527 15.24 9.81027 15.105 9.78027 14.97C9.79527 14.97 9.82527 14.955 9.85527 14.925C9.90027 14.91 9.91527 14.88 9.93027 14.865Z" fill="#0E0E9E"/>
<path d="M14.1452 12.915C14.1002 12.795 14.0402 12.615 13.9052 12.42C13.7702 12.21 13.6052 12.075 13.4852 12C13.3202 11.88 13.1552 11.745 12.9902 11.625C13.0352 11.505 13.0652 11.4 13.1102 11.28C13.2902 11.415 13.5002 11.55 13.7252 11.7C13.9052 11.805 14.0852 11.91 14.2502 12C14.2502 12.12 14.2502 12.24 14.2502 12.375C14.2502 12.525 14.2652 12.66 14.2952 12.795C14.2802 12.795 14.2502 12.81 14.2202 12.84C14.1752 12.87 14.1602 12.9 14.1452 12.915Z" fill="#0E0E9E"/>
<path d="M14.1452 14.865C14.1152 15 14.0402 15.21 13.8752 15.435C13.7102 15.66 13.5302 15.78 13.4102 15.855C13.2752 15.96 13.1252 16.065 12.9902 16.155C13.0202 16.2 13.0502 16.245 13.0652 16.305C13.0952 16.395 13.1102 16.485 13.1102 16.53C13.3202 16.365 13.5602 16.2 13.8302 16.035C13.9802 15.945 14.1152 15.87 14.2502 15.81C14.2502 15.675 14.2502 15.54 14.2502 15.39C14.2502 15.24 14.2652 15.105 14.2952 14.97C14.2802 14.97 14.2502 14.955 14.2202 14.925C14.1752 14.91 14.1602 14.88 14.1452 14.865Z" fill="#0E0E9E"/>
<path d="M12.015 14.37C12.3215 14.37 12.57 14.1215 12.57 13.815C12.57 13.5085 12.3215 13.26 12.015 13.26C11.7084 13.26 11.46 13.5085 11.46 13.815C11.46 14.1215 11.7084 14.37 12.015 14.37Z" fill="#262626"/>
<path d="M14.4603 14.445C14.7668 14.445 15.0153 14.1965 15.0153 13.89C15.0153 13.5834 14.7668 13.335 14.4603 13.335C14.1538 13.335 13.9053 13.5834 13.9053 13.89C13.9053 14.1965 14.1538 14.445 14.4603 14.445Z" fill="#262626"/>
<path d="M9.64484 14.445C9.95136 14.445 10.1998 14.1965 10.1998 13.89C10.1998 13.5834 9.95136 13.335 9.64484 13.335C9.33833 13.335 9.08984 13.5834 9.08984 13.89C9.08984 14.1965 9.33833 14.445 9.64484 14.445Z" fill="#262626"/>
<path d="M5.23547 13.65C5.23547 14.025 4.92047 14.34 4.54547 14.34C4.17047 14.34 3.85547 14.025 3.85547 13.65C3.85547 13.275 4.17047 12.96 4.54547 12.96C4.92047 12.96 5.23547 13.26 5.23547 13.65ZM4.54547 13.41C4.42547 13.41 4.32047 13.515 4.32047 13.635C4.32047 13.755 4.42547 13.86 4.54547 13.86C4.66547 13.86 4.77047 13.77 4.77047 13.65C4.77047 13.515 4.68047 13.41 4.54547 13.41Z" fill="#262626"/>
<path d="M5.65539 10.095C5.65539 10.47 5.34039 10.785 4.96539 10.785C4.59039 10.785 4.27539 10.47 4.27539 10.095C4.27539 9.72003 4.59039 9.40503 4.96539 9.40503C5.34039 9.40503 5.65539 9.70503 5.65539 10.095ZM4.96539 9.85503C4.84539 9.85503 4.74039 9.96003 4.74039 10.08C4.74039 10.2 4.84539 10.305 4.96539 10.305C5.08539 10.305 5.19039 10.2 5.19039 10.08C5.19039 9.96003 5.10039 9.85503 4.96539 9.85503Z" fill="#262626"/>
<path d="M6.42004 16.3499C6.42004 16.7249 6.10504 17.0399 5.73004 17.0399C5.35504 17.0399 5.04004 16.7249 5.04004 16.3499C5.04004 15.9749 5.35504 15.6599 5.73004 15.6599C6.10504 15.6599 6.42004 15.9749 6.42004 16.3499ZM5.73004 16.1249C5.61004 16.1249 5.50504 16.2299 5.50504 16.3499C5.50504 16.4699 5.61004 16.5749 5.73004 16.5749C5.85004 16.5749 5.95504 16.4699 5.95504 16.3499C5.95504 16.2299 5.86504 16.1249 5.73004 16.1249Z" fill="#262626"/>
<path d="M7.90539 18.8851C7.90539 19.2601 7.59039 19.5751 7.21539 19.5751C6.84039 19.5751 6.52539 19.2601 6.52539 18.8851C6.52539 18.5101 6.84039 18.1951 7.21539 18.1951C7.59039 18.1951 7.90539 18.4951 7.90539 18.8851ZM7.23039 18.6451C7.11039 18.6451 7.00539 18.7501 7.00539 18.8701C7.00539 18.9901 7.11039 19.0951 7.23039 19.0951C7.35039 19.0951 7.45539 18.9901 7.45539 18.8701C7.45539 18.7501 7.35039 18.6451 7.23039 18.6451Z" fill="#262626"/>
<path d="M19.4552 16.3499C19.4552 16.7249 19.1402 17.0399 18.7652 17.0399C18.3902 17.0399 18.0752 16.7249 18.0752 16.3499C18.0752 15.9749 18.3902 15.6599 18.7652 15.6599C19.1402 15.6749 19.4552 15.9749 19.4552 16.3499ZM18.7652 16.1249C18.6452 16.1249 18.5402 16.2299 18.5402 16.3499C18.5402 16.4699 18.6452 16.5749 18.7652 16.5749C18.8852 16.5749 18.9902 16.4699 18.9902 16.3499C18.9902 16.2299 18.8852 16.1249 18.7652 16.1249Z" fill="#262626"/>
<path d="M18.6446 7.53009C18.6446 7.90509 18.3296 8.22009 17.9546 8.22009C17.5796 8.22009 17.2646 7.90509 17.2646 7.53009C17.2646 7.15509 17.5796 6.84009 17.9546 6.84009C18.3446 6.84009 18.6446 7.15509 18.6446 7.53009ZM17.9546 7.30509C17.8346 7.30509 17.7296 7.41009 17.7296 7.53009C17.7296 7.65009 17.8346 7.75509 17.9546 7.75509C18.0746 7.75509 18.1796 7.65009 18.1796 7.53009C18.1946 7.39509 18.0896 7.30509 17.9546 7.30509Z" fill="#262626"/>
<path d="M12.015 17.31C12.3215 17.31 12.57 17.0615 12.57 16.755C12.57 16.4484 12.3215 16.2 12.015 16.2C11.7084 16.2 11.46 16.4484 11.46 16.755C11.46 17.0615 11.7084 17.31 12.015 17.31Z" fill="#262626"/>
<path d="M13.2304 13.605C13.3504 13.605 13.4554 13.605 13.5754 13.605C13.5754 13.35 13.5754 13.095 13.5754 12.84C13.3354 12.675 13.0804 12.51 12.8104 12.345C12.5404 12.18 12.2854 12.045 12.0454 11.925C11.7754 12.03 11.4904 12.18 11.1904 12.345C10.9054 12.51 10.6504 12.675 10.4404 12.84C10.4404 13.095 10.4404 13.35 10.4404 13.605C10.5604 13.605 10.6954 13.605 10.8154 13.605C10.9354 13.02 11.4454 12.6 12.0454 12.615C12.6154 12.615 13.1104 13.035 13.2304 13.605Z" fill="#262626"/>
<path d="M13.2304 14.0701C13.3504 14.0701 13.4554 14.0701 13.5754 14.0701C13.5754 14.3251 13.5754 14.5801 13.5754 14.8351C13.3504 15.0001 13.0954 15.1651 12.8104 15.3301C12.5404 15.4951 12.2854 15.6301 12.0454 15.7501C11.7904 15.6451 11.5054 15.4951 11.2054 15.3301C10.9054 15.1651 10.6504 14.9851 10.4404 14.8351C10.4404 14.5801 10.4404 14.3251 10.4404 14.0701C10.5604 14.0701 10.6954 14.0701 10.8154 14.0701C10.9354 14.6551 11.4454 15.0751 12.0454 15.0601C12.6154 15.0451 13.1104 14.6401 13.2304 14.0701Z" fill="#262626"/>
<path d="M4.81461 11.085H4.34961V12.465H4.81461V11.085Z" fill="#0E0E9E"/>
<path d="M7.18547 13.3799H5.73047V13.8449H7.18547V13.3799Z" fill="#0E0E9E"/>
<path d="M7.68004 16.095H6.91504V16.56H7.68004V16.095Z" fill="#0E0E9E"/>
<path d="M17.5052 16.095H16.2002V16.56H17.5052V16.095Z" fill="#0E0E9E"/>
<path d="M8.51992 18.54H8.29492V19.005H8.51992V18.54Z" fill="#0E0E9E"/>
<path d="M16.7702 7.37988H16.2002V7.84488H16.7702V7.37988Z" fill="#0E0E9E"/>
<path d="M18.9602 17.5049C18.9602 17.6249 18.9452 18.0899 18.5852 18.4949C18.1652 18.9599 17.6102 18.9899 17.5202 18.9899C16.8902 18.9899 16.2452 18.9899 15.6152 18.9899C15.6152 18.8399 15.6152 18.6899 15.6152 18.5249C16.2452 18.5249 16.8902 18.5249 17.5202 18.5249C17.5952 18.5249 17.9402 18.4949 18.2102 18.2249C18.4952 17.9399 18.5102 17.5799 18.5102 17.5049C18.6452 17.5049 18.8102 17.5049 18.9602 17.5049Z" fill="#0E0E9E"/>
<path d="M4.93531 15.48C4.81531 15.6 4.71031 15.735 4.59031 15.855C4.54531 15.795 4.51531 15.705 4.47031 15.63C4.33531 15.3 4.33531 14.985 4.35031 14.79C4.50031 14.79 4.65031 14.79 4.81531 14.79C4.80031 14.91 4.81531 15.075 4.86031 15.255C4.87531 15.33 4.90531 15.405 4.93531 15.48Z" fill="#0E0E9E"/>
</g>
<defs>
<clipPath id="clip0_103_53">
<rect width="24" height="24" fill="white"/>
</clipPath>
</defs>
</svg>
